<svg xmlns="http://www.w3.org/2000/svg" viewBox="0 0 512 512" width="512" height="512">
  <defs>
    <linearGradient id="bgGrad" x1="0%" y1="0%" x2="100%" y2="100%">
      <stop offset="0%" stop-color="#0f172a" />
      <stop offset="100%" stop-color="#1e1b4b" />
    </linearGradient>
    
    <linearGradient id="lineGrad1" x1="0%" y1="0%" x2="0%" y2="100%">
      <stop offset="0%" stop-color="#38bdf8" stop-opacity="0.6"/>
      <stop offset="100%" stop-color="#818cf8" stop-opacity="0.6"/>
    </linearGradient>
    <linearGradient id="lineGrad2" x1="0%" y1="100%" x2="100%" y2="0%">
      <stop offset="0%" stop-color="#fbbf24" stop-opacity="0.6"/>
      <stop offset="100%" stop-color="#f472b6" stop-opacity="0.6"/>
    </linearGradient>
    <linearGradient id="lineGrad3" x1="0%" y1="0%" x2="100%" y2="100%">
      <stop offset="0%" stop-color="#fbbf24" stop-opacity="0.6"/>
      <stop offset="100%" stop-color="#34d399" stop-opacity="0.6"/>
    </linearGradient>
  </defs>

  <rect width="512" height="512" rx="112" fill="url(#bgGrad)" />

  <line x1="171" y1="140" x2="171" y2="372" stroke="url(#lineGrad1)" stroke-width="24" stroke-linecap="round"/>
  <line x1="171" y1="256" x2="341" y2="150" stroke="url(#lineGrad2)" stroke-width="24" stroke-linecap="round"/>
  <line x1="171" y1="256" x2="341" y2="362" stroke="url(#lineGrad3)" stroke-width="24" stroke-linecap="round"/>

  <circle cx="171" cy="198" r="8" fill="#ffffff" opacity="0.9" />
  <circle cx="171" cy="314" r="8" fill="#ffffff" opacity="0.9" />
  <circle cx="256" cy="203" r="8" fill="#ffffff" opacity="0.9" />
  <circle cx="256" cy="309" r="8" fill="#ffffff" opacity="0.9" />

  <circle cx="171" cy="140" r="32" fill="#38bdf8" />
  <circle cx="171" cy="140" r="12" fill="#0f172a" />

  <circle cx="171" cy="372" r="32" fill="#818cf8" />
  <circle cx="171" cy="372" r="12" fill="#0f172a" />

  <circle cx="341" cy="150" r="32" fill="#f472b6" />
  <circle cx="341" cy="150" r="12" fill="#0f172a" />

  <circle cx="341" cy="362" r="32" fill="#34d399" />
  <circle cx="341" cy="362" r="12" fill="#0f172a" />

  <circle cx="171" cy="256" r="40" fill="#fbbf24" />
  <polygon points="163,242 163,270 187,256" fill="#0f172a" />

</svg>
